999
"DXF R12 Output" (www.mydxf.blogspot.com)
 0 
SECTION
 2 
HEADER
 9 
$ACADVER
 1 
AC1009
 9 
$EXTMIN
 10 
 0 
 20 
 0 
 9 
$EXTMAX
 10 
 8.5 
 20 
 11 
 0 
ENDSEC
 0 
SECTION
 2 
ENTITIES
0
LINE
8
Layer 1
10
0.793749
20
107.294000
11
-0.793749
21
105.706000
0
LINE
8
Layer 1
10
0.000000
20
107.823000
11
0.000000
21
105.177000
0
LINE
8
Layer 1
10
2.116660
20
105.442000
11
1.058330
21
104.383670
0
LINE
8
Layer 1
10
1.587500
20
105.971000
11
0.529170
21
104.912670
0
LINE
8
Layer 1
10
1.058330
20
106.500000
11
0.000000
21
105.441670
0
LINE
8
0
10
7.023030
20
5.523030
11
6.822127
21
6.272675
0
LINE
8
0
10
6.822127
20
6.272675
11
6.273260
21
6.821453
0
LINE
8
0
10
6.273260
20
6.821453
11
5.523495
21
7.022320
0
LINE
8
0
10
5.523495
20
7.022320
11
4.773730
21
6.821453
0
LINE
8
0
10
4.773730
20
6.821453
11
4.224864
21
6.272675
0
LINE
8
0
10
4.224864
20
6.272675
11
4.023965
21
5.523030
0
LINE
8
0
10
4.023965
20
5.523030
11
4.224866
21
4.773385
0
LINE
8
0
10
4.224866
20
4.773385
11
4.773732
21
4.224607
0
LINE
8
0
10
4.773732
20
4.224607
11
5.523497
21
4.023740
0
LINE
8
0
10
5.523497
20
4.023740
11
6.273262
21
4.224607
0
LINE
8
0
10
6.273262
20
4.224607
11
6.822129
21
4.773385
0
LINE
8
0
10
6.822129
20
4.773385
11
7.023027
21
5.523030
0
LINE
8
0
10
7.023027
20
5.523030
11
7.023030
21
5.523030
0
LINE
8
0
10
140.482000
20
5.523030
11
140.363046
21
6.105377
0
LINE
8
0
10
140.363046
20
6.105377
11
140.041430
21
6.580684
0
LINE
8
0
10
140.041430
20
6.580684
11
139.565215
21
6.901019
0
LINE
8
0
10
139.565215
20
6.901019
11
138.982465
21
7.018448
0
LINE
8
0
10
138.982465
20
7.018448
11
138.399715
21
6.901019
0
LINE
8
0
10
138.399715
20
6.901019
11
137.923500
21
6.580684
0
LINE
8
0
10
137.923500
20
6.580684
11
137.601884
21
6.105377
0
LINE
8
0
10
137.601884
20
6.105377
11
137.482930
21
5.523030
0
LINE
8
0
10
137.482930
20
5.523030
11
137.601884
21
4.940683
0
LINE
8
0
10
137.601884
20
4.940683
11
137.923500
21
4.465376
0
LINE
8
0
10
137.923500
20
4.465376
11
138.399715
21
4.145041
0
LINE
8
0
10
138.399715
20
4.145041
11
138.982465
21
4.027612
0
LINE
8
0
10
138.982465
20
4.027612
11
139.565215
21
4.145041
0
LINE
8
0
10
139.565215
20
4.145041
11
140.041430
21
4.465376
0
LINE
8
0
10
140.041430
20
4.465376
11
140.363046
21
4.940683
0
LINE
8
0
10
140.363046
20
4.940683
11
140.482000
21
5.523030
0
LINE
8
0
10
140.482000
20
5.523030
11
140.482000
21
5.523030
0
LINE
8
0
10
7.023030
20
100.978000
11
6.822127
21
101.727645
0
LINE
8
0
10
6.822127
20
101.727645
11
6.273260
21
102.276423
0
LINE
8
0
10
6.273260
20
102.276423
11
5.523495
21
102.477290
0
LINE
8
0
10
5.523495
20
102.477290
11
4.773730
21
102.276423
0
LINE
8
0
10
4.773730
20
102.276423
11
4.224864
21
101.727645
0
LINE
8
0
10
4.224864
20
101.727645
11
4.023965
21
100.978000
0
LINE
8
0
10
4.023965
20
100.978000
11
4.224866
21
100.228355
0
LINE
8
0
10
4.224866
20
100.228355
11
4.773732
21
99.679577
0
LINE
8
0
10
4.773732
20
99.679577
11
5.523497
21
99.478710
0
LINE
8
0
10
5.523497
20
99.478710
11
6.273262
21
99.679577
0
LINE
8
0
10
6.273262
20
99.679577
11
6.822129
21
100.228355
0
LINE
8
0
10
6.822129
20
100.228355
11
7.023027
21
100.978000
0
LINE
8
0
10
7.023027
20
100.978000
11
7.023030
21
100.978000
0
LINE
8
0
10
140.482000
20
100.978000
11
140.363046
21
101.560347
0
LINE
8
0
10
140.363046
20
101.560347
11
140.041430
21
102.035654
0
LINE
8
0
10
140.041430
20
102.035654
11
139.565215
21
102.355989
0
LINE
8
0
10
139.565215
20
102.355989
11
138.982465
21
102.473418
0
LINE
8
0
10
138.982465
20
102.473418
11
138.399715
21
102.355989
0
LINE
8
0
10
138.399715
20
102.355989
11
137.923500
21
102.035654
0
LINE
8
0
10
137.923500
20
102.035654
11
137.601884
21
101.560347
0
LINE
8
0
10
137.601884
20
101.560347
11
137.482930
21
100.978000
0
LINE
8
0
10
137.482930
20
100.978000
11
137.601884
21
100.395653
0
LINE
8
0
10
137.601884
20
100.395653
11
137.923500
21
99.920346
0
LINE
8
0
10
137.923500
20
99.920346
11
138.399715
21
99.600011
0
LINE
8
0
10
138.399715
20
99.600011
11
138.982465
21
99.482582
0
LINE
8
0
10
138.982465
20
99.482582
11
139.565215
21
99.600011
0
LINE
8
0
10
139.565215
20
99.600011
11
140.041430
21
99.920346
0
LINE
8
0
10
140.041430
20
99.920346
11
140.363046
21
100.395653
0
LINE
8
0
10
140.363046
20
100.395653
11
140.482000
21
100.978000
0
LINE
8
0
10
140.482000
20
100.978000
11
140.482000
21
100.978000
0
LINE
8
0
10
142.481000
20
106.475000
11
0.025174
21
106.475000
0
LINE
8
0
10
0.025174
20
106.475000
11
0.025174
21
0.025493
0
LINE
8
0
10
162.475000
20
0.025493
11
0.025174
21
0.025493
0
LINE
8
0
10
162.475000
20
86.484700
11
162.475000
21
0.025493
0
LINE
8
0
10
142.481000
20
106.475000
11
162.474600
21
86.484600
0
LINE
8
0
10
147.479000
20
78.223000
11
152.477540
21
74.303740
0
LINE
8
0
10
152.478000
20
74.303700
11
152.478000
21
70.601300
0
LINE
8
0
10
152.478000
20
70.601300
11
147.479000
21
74.520600
0
LINE
8
0
10
147.479000
20
74.520600
11
142.480720
21
70.601330
0
LINE
8
0
10
142.481000
20
70.601300
11
142.481000
21
74.303700
0
LINE
8
0
10
142.481000
20
74.303700
11
147.479280
21
78.222960
0
LINE
8
0
10
144.623000
20
24.736400
11
142.481000
21
24.736400
0
LINE
8
0
10
142.481000
20
24.736400
11
142.481000
21
34.706500
0
LINE
8
0
10
142.481000
20
34.706500
11
149.605000
21
34.706500
0
LINE
8
0
10
149.605000
20
34.706500
11
149.605000
21
31.858300
0
LINE
8
0
10
149.605000
20
31.858300
11
144.623000
21
31.858300
0
LINE
8
0
10
144.623000
20
31.858300
11
144.623000
21
24.736400
0
LINE
8
0
10
146.012000
20
29.010100
11
148.154460
21
31.146950
0
LINE
8
0
10
148.155000
20
31.146900
11
148.155000
21
24.736400
0
LINE
8
0
10
148.155000
20
24.736400
11
146.012000
21
24.736400
0
LINE
8
0
10
146.012000
20
24.736400
11
146.012000
21
29.010100
0
LINE
8
0
10
150.335000
20
58.208900
11
152.477460
21
59.634330
0
LINE
8
0
10
152.478000
20
59.634300
11
152.478000
21
48.238800
0
LINE
8
0
10
152.478000
20
48.238800
11
150.335000
21
48.238800
0
LINE
8
0
10
150.335000
20
48.238800
11
150.335000
21
58.208900
0
LINE
8
0
10
142.481000
20
67.277100
11
142.481000
21
70.342200
0
LINE
8
0
10
142.481000
20
70.342200
11
149.949190
21
66.478480
0
LINE
8
0
10
149.949000
20
66.478400
11
146.993730
21
64.992140
0
LINE
8
0
10
146.994000
20
64.992200
11
142.481080
21
67.277110
0
LINE
8
0
10
153.641000
20
64.571700
11
142.481200
21
58.801230
0
LINE
8
0
10
142.481000
20
58.801200
11
142.481000
21
61.863700
0
LINE
8
0
10
142.481000
20
61.863700
11
150.791360
21
66.047420
0
LINE
8
0
10
150.791000
20
66.047400
11
153.640470
21
64.571730
0
LINE
8
0
10
144.522000
20
76.834600
11
142.480850
21
78.437210
0
LINE
8
0
10
142.481000
20
78.437200
11
142.481000
21
81.711200
0
LINE
8
0
10
142.481000
20
81.711200
11
152.478000
21
81.711200
0
LINE
8
0
10
152.478000
20
81.711200
11
152.478000
21
78.863000
0
LINE
8
0
10
152.478000
20
78.863000
11
146.656000
21
78.863000
0
LINE
8
0
10
146.656000
20
78.863000
11
146.883999
21
78.685819
0
LINE
8
0
10
146.884000
20
78.685800
11
144.522000
21
76.834590
0
LINE
8
0
10
142.481000
20
43.589600
11
142.481000
21
47.292000
0
LINE
8
0
10
142.481000
20
47.292000
11
146.884150
21
43.838190
0
LINE
8
0
10
146.884000
20
43.838200
11
144.522000
21
41.986990
0
LINE
8
0
10
144.522000
20
41.987000
11
142.480850
21
43.589610
0
LINE
8
0
10
148.073000
20
39.207600
11
150.437110
21
41.061450
0
LINE
8
0
10
150.437000
20
41.061400
11
152.478160
21
39.456140
0
LINE
8
0
10
152.478000
20
39.456200
11
152.478000
21
24.736400
0
LINE
8
0
10
152.478000
20
24.736400
11
150.335000
21
24.736400
0
LINE
8
0
10
150.335000
20
24.736400
11
150.335000
21
34.706500
0
LINE
8
0
10
150.335000
20
34.706500
11
152.215340
21
35.957380
0
LINE
8
0
10
152.216000
20
35.957400
11
148.073000
21
39.207600
0
LINE
8
0
10
142.481000
20
39.456200
11
152.477820
21
47.292080
0
LINE
8
0
10
152.478000
20
47.292000
11
152.478000
21
43.589600
0
LINE
8
0
10
152.478000
20
43.589600
11
142.481180
21
35.751070
0
LINE
8
0
10
142.481000
20
35.751100
11
142.481000
21
39.456200
0
LINE
8
0
10
149.641000
20
51.801000
11
142.481000
21
51.801000
0
LINE
8
0
10
142.481000
20
51.801000
11
142.481000
21
54.649300
0
LINE
8
0
10
142.481000
20
54.649300
11
149.641000
21
54.649300
0
LINE
8
0
10
149.641000
20
54.649300
11
149.641000
21
51.801000
 0 
ENDSEC
 0 
EOF